<?xml version="1.0" encoding="utf-8" standalone="no"?>
<!DOCTYPE svg PUBLIC "-//W3C//DTD SVG 1.1//EN"
  "http://www.w3.org/Graphics/SVG/1.1/DTD/svg11.dtd">
<svg xmlns:xlink="http://www.w3.org/1999/xlink" width="720pt" height="576pt" viewBox="0 0 720 576" xmlns="http://www.w3.org/2000/svg" version="1.1">
 <metadata>
  <rdf:RDF xmlns:dc="http://purl.org/dc/elements/1.1/" xmlns:cc="http://creativecommons.org/ns#" xmlns:rdf="http://www.w3.org/1999/02/22-rdf-syntax-ns#">
   <cc:Work>
    <dc:type rdf:resource="http://purl.org/dc/dcmitype/StillImage"/>
    <dc:date>2024-10-07T10:24:03.638246</dc:date>
    <dc:format>image/svg+xml</dc:format>
    <dc:creator>
     <cc:Agent>
      <dc:title>Matplotlib v3.9.1, https://matplotlib.org/</dc:title>
     </cc:Agent>
    </dc:creator>
   </cc:Work>
  </rdf:RDF>
 </metadata>
 <defs>
  <style type="text/css">*{stroke-linejoin: round; stroke-linecap: butt}</style>
 </defs>
 <g id="figure_1">
  <g id="patch_1">
   <path d="M 0 576 
L 720 576 
L 720 0 
L 0 0 
z
" style="fill: #ffffff"/>
  </g>
  <g id="axes_1">
   <g id="patch_2">
    <path d="M 506.073113 516.740338 
Q 502.531467 517.738287 500.06595 518.433009 
" clip-path="url(#pb33e032092)" style="fill: none; stroke: #000000; stroke-linecap: round"/>
    <path d="M 504.458454 519.27319 
L 500.06595 518.433009 
L 503.373597 515.423114 
z
" clip-path="url(#pb33e032092)" style="stroke: #000000; stroke-linecap: round"/>
   </g>
   <g id="patch_3">
    <path d="M 472.628542 478.856233 
C 500.747901 478.856233 500.747901 526.164199 472.628542 526.164199 
C 444.509183 526.164199 444.509183 478.856233 471.510508 478.856233 
" clip-path="url(#pb33e032092)" style="fill: none; stroke: #000000; stroke-linecap: round"/>
    <path d="M 467.510508 476.856233 
L 471.510508 478.856233 
L 467.510508 480.856233 
z
" clip-path="url(#pb33e032092)" style="stroke: #000000; stroke-linecap: round"/>
   </g>
   <g id="patch_4">
    <path d="M 565.66894 405.703226 
Q 566.356485 407.85221 566.703338 408.936333 
" clip-path="url(#pb33e032092)" style="fill: none; stroke: #000000; stroke-linecap: round"/>
    <path d="M 567.389327 404.517123 
L 566.703338 408.936333 
L 563.579563 405.736016 
z
" clip-path="url(#pb33e032092)" style="stroke: #000000; stroke-linecap: round"/>
   </g>
   <g id="patch_5">
    <path d="M 561.532337 459.70217 
Q 553.909353 472.697052 546.852072 484.72758 
" clip-path="url(#pb33e032092)" style="fill: none; stroke: #000000; stroke-linecap: round"/>
    <path d="M 550.601086 482.289364 
L 546.852072 484.72758 
L 547.150907 480.26544 
z
" clip-path="url(#pb33e032092)" style="stroke: #000000; stroke-linecap: round"/>
   </g>
   <g id="patch_6">
    <path d="M 62.479339 27.024853 
C 90.598698 27.024853 90.598698 74.332819 62.479339 74.332819 
C 34.35998 74.332819 34.35998 27.024853 61.361305 27.024853 
" clip-path="url(#pb33e032092)" style="fill: none; stroke: #000000; stroke-linecap: round"/>
    <path d="M 57.361305 25.024853 
L 61.361305 27.024853 
L 57.361305 29.024853 
z
" clip-path="url(#pb33e032092)" style="stroke: #000000; stroke-linecap: round"/>
   </g>
   <g id="patch_7">
    <path d="M 459.40621 504.041995 
Q 466.017376 515.103097 472.054945 525.204518 
" clip-path="url(#pb33e032092)" style="fill: none; stroke: #000000; stroke-linecap: round"/>
    <path d="M 471.719513 520.74498 
L 472.054945 525.204518 
L 468.286055 522.797141 
z
" clip-path="url(#pb33e032092)" style="stroke: #000000; stroke-linecap: round"/>
   </g>
   <g id="patch_8">
    <path d="M 603.677867 387.346636 
Q 596.40777 399.871056 589.698953 411.428541 
" clip-path="url(#pb33e032092)" style="fill: none; stroke: #000000; stroke-linecap: round"/>
    <path d="M 593.436758 408.973178 
L 589.698953 411.428541 
L 589.977345 406.965079 
z
" clip-path="url(#pb33e032092)" style="stroke: #000000; stroke-linecap: round"/>
   </g>
   <g id="patch_9">
    <path d="M 94.095797 62.60762 
Q 91.125965 63.709004 89.204401 64.42163 
" clip-path="url(#pb33e032092)" style="fill: none; stroke: #000000; stroke-linecap: round"/>
    <path d="M 93.650233 64.905966 
L 89.204401 64.42163 
L 92.259369 61.155567 
z
" clip-path="url(#pb33e032092)" style="stroke: #000000; stroke-linecap: round"/>
   </g>
   <g id="patch_10">
    <path d="M 624.328987 427.44995 
Q 613.343914 429.387465 603.459881 431.130781 
" clip-path="url(#pb33e032092)" style="fill: none; stroke: #000000; stroke-linecap: round"/>
    <path d="M 607.746471 432.405596 
L 603.459881 431.130781 
L 607.051687 428.466398 
z
" clip-path="url(#pb33e032092)" style="stroke: #000000; stroke-linecap: round"/>
   </g>
   <g id="patch_11">
    <path d="M 642.394949 325.981183 
Q 637.47494 333.406026 633.172506 339.89888 
" clip-path="url(#pb33e032092)" style="fill: none; stroke: #000000; stroke-linecap: round"/>
    <path d="M 637.049198 337.669247 
L 633.172506 339.89888 
L 633.714815 335.459747 
z
" clip-path="url(#pb33e032092)" style="stroke: #000000; stroke-linecap: round"/>
   </g>
   <g id="patch_12">
    <path d="M 421.952153 450.113621 
Q 425.304582 454.471154 427.975273 457.942553 
" clip-path="url(#pb33e032092)" style="fill: none; stroke: #000000; stroke-linecap: round"/>
    <path d="M 427.121373 453.552695 
L 427.975273 457.942553 
L 423.951046 455.991758 
z
" clip-path="url(#pb33e032092)" style="stroke: #000000; stroke-linecap: round"/>
   </g>
   <g id="PathCollection_1">
    <defs>
     <path id="m1cee64d43a" d="M 0 27.386128 
C 7.262886 27.386128 14.229281 24.500553 19.364917 19.364917 
C 24.500553 14.229281 27.386128 7.262886 27.386128 0 
C 27.386128 -7.262886 24.500553 -14.229281 19.364917 -19.364917 
C 14.229281 -24.500553 7.262886 -27.386128 0 -27.386128 
C -7.262886 -27.386128 -14.229281 -24.500553 -19.364917 -19.364917 
C -24.500553 -14.229281 -27.386128 -7.262886 -27.386128 0 
C -27.386128 7.262886 -24.500553 14.229281 -19.364917 19.364917 
C -14.229281 24.500553 -7.262886 27.386128 0 27.386128 
z
" style="stroke: #add8e6"/>
    </defs>
    <g clip-path="url(#pb33e032092)">
     <use xlink:href="#m1cee64d43a" x="532.429465" y="509.313763" style="fill: #add8e6; stroke: #add8e6"/>
     <use xlink:href="#m1cee64d43a" x="472.628542" y="526.164199" style="fill: #add8e6; stroke: #add8e6"/>
     <use xlink:href="#m1cee64d43a" x="557.323423" y="379.618521" style="fill: #add8e6; stroke: #add8e6"/>
     <use xlink:href="#m1cee64d43a" x="575.388287" y="436.081965" style="fill: #add8e6; stroke: #add8e6"/>
     <use xlink:href="#m1cee64d43a" x="62.479339" y="74.332819" style="fill: #add8e6; stroke: #add8e6"/>
     <use xlink:href="#m1cee64d43a" x="445.354881" y="480.532801" style="fill: #add8e6; stroke: #add8e6"/>
     <use xlink:href="#m1cee64d43a" x="617.426878" y="363.660793" style="fill: #add8e6; stroke: #add8e6"/>
     <use xlink:href="#m1cee64d43a" x="119.774334" y="53.084543" style="fill: #add8e6; stroke: #add8e6"/>
     <use xlink:href="#m1cee64d43a" x="651.298958" y="422.693067" style="fill: #add8e6; stroke: #add8e6"/>
     <use xlink:href="#m1cee64d43a" x="657.520661" y="303.154792" style="fill: #add8e6; stroke: #add8e6"/>
     <use xlink:href="#m1cee64d43a" x="405.251304" y="428.405634" style="fill: #add8e6; stroke: #add8e6"/>
    </g>
   </g>
   <g id="text_1">
    <g clip-path="url(#pb33e032092)">
     <!-- Sun in Gem -->
     <g transform="translate(500.249778 512.073138) scale(0.1 -0.1)">
      <defs>
       <path id="DejaVuSans-Bold-53" d="M 3834 4519 
L 3834 3531 
Q 3450 3703 3084 3790 
Q 2719 3878 2394 3878 
Q 1963 3878 1756 3759 
Q 1550 3641 1550 3391 
Q 1550 3203 1689 3098 
Q 1828 2994 2194 2919 
L 2706 2816 
Q 3484 2659 3812 2340 
Q 4141 2022 4141 1434 
Q 4141 663 3683 286 
Q 3225 -91 2284 -91 
Q 1841 -91 1394 -6 
Q 947 78 500 244 
L 500 1259 
Q 947 1022 1364 901 
Q 1781 781 2169 781 
Q 2563 781 2772 912 
Q 2981 1044 2981 1288 
Q 2981 1506 2839 1625 
Q 2697 1744 2272 1838 
L 1806 1941 
Q 1106 2091 782 2419 
Q 459 2747 459 3303 
Q 459 4000 909 4375 
Q 1359 4750 2203 4750 
Q 2588 4750 2994 4692 
Q 3400 4634 3834 4519 
z
" transform="scale(0.015625)"/>
       <path id="DejaVuSans-Bold-75" d="M 500 1363 
L 500 3500 
L 1625 3500 
L 1625 3150 
Q 1625 2866 1622 2436 
Q 1619 2006 1619 1863 
Q 1619 1441 1641 1255 
Q 1663 1069 1716 984 
Q 1784 875 1895 815 
Q 2006 756 2150 756 
Q 2500 756 2700 1025 
Q 2900 1294 2900 1772 
L 2900 3500 
L 4019 3500 
L 4019 0 
L 2900 0 
L 2900 506 
Q 2647 200 2364 54 
Q 2081 -91 1741 -91 
Q 1134 -91 817 281 
Q 500 653 500 1363 
z
" transform="scale(0.015625)"/>
       <path id="DejaVuSans-Bold-6e" d="M 4056 2131 
L 4056 0 
L 2931 0 
L 2931 347 
L 2931 1631 
Q 2931 2084 2911 2256 
Q 2891 2428 2841 2509 
Q 2775 2619 2662 2680 
Q 2550 2741 2406 2741 
Q 2056 2741 1856 2470 
Q 1656 2200 1656 1722 
L 1656 0 
L 538 0 
L 538 3500 
L 1656 3500 
L 1656 2988 
Q 1909 3294 2193 3439 
Q 2478 3584 2822 3584 
Q 3428 3584 3742 3212 
Q 4056 2841 4056 2131 
z
" transform="scale(0.015625)"/>
       <path id="DejaVuSans-Bold-20" transform="scale(0.015625)"/>
       <path id="DejaVuSans-Bold-69" d="M 538 3500 
L 1656 3500 
L 1656 0 
L 538 0 
L 538 3500 
z
M 538 4863 
L 1656 4863 
L 1656 3950 
L 538 3950 
L 538 4863 
z
" transform="scale(0.015625)"/>
       <path id="DejaVuSans-Bold-47" d="M 4781 347 
Q 4331 128 3847 18 
Q 3363 -91 2847 -91 
Q 1681 -91 1000 561 
Q 319 1213 319 2328 
Q 319 3456 1012 4103 
Q 1706 4750 2913 4750 
Q 3378 4750 3804 4662 
Q 4231 4575 4609 4403 
L 4609 3438 
Q 4219 3659 3833 3768 
Q 3447 3878 3059 3878 
Q 2341 3878 1952 3476 
Q 1563 3075 1563 2328 
Q 1563 1588 1938 1184 
Q 2313 781 3003 781 
Q 3191 781 3352 804 
Q 3513 828 3641 878 
L 3641 1784 
L 2906 1784 
L 2906 2591 
L 4781 2591 
L 4781 347 
z
" transform="scale(0.015625)"/>
       <path id="DejaVuSans-Bold-65" d="M 4031 1759 
L 4031 1441 
L 1416 1441 
Q 1456 1047 1700 850 
Q 1944 653 2381 653 
Q 2734 653 3104 758 
Q 3475 863 3866 1075 
L 3866 213 
Q 3469 63 3072 -14 
Q 2675 -91 2278 -91 
Q 1328 -91 801 392 
Q 275 875 275 1747 
Q 275 2603 792 3093 
Q 1309 3584 2216 3584 
Q 3041 3584 3536 3087 
Q 4031 2591 4031 1759 
z
M 2881 2131 
Q 2881 2450 2695 2645 
Q 2509 2841 2209 2841 
Q 1884 2841 1681 2658 
Q 1478 2475 1428 2131 
L 2881 2131 
z
" transform="scale(0.015625)"/>
       <path id="DejaVuSans-Bold-6d" d="M 3781 2919 
Q 3994 3244 4286 3414 
Q 4578 3584 4928 3584 
Q 5531 3584 5847 3212 
Q 6163 2841 6163 2131 
L 6163 0 
L 5038 0 
L 5038 1825 
Q 5041 1866 5042 1909 
Q 5044 1953 5044 2034 
Q 5044 2406 4934 2573 
Q 4825 2741 4581 2741 
Q 4263 2741 4089 2478 
Q 3916 2216 3909 1719 
L 3909 0 
L 2784 0 
L 2784 1825 
Q 2784 2406 2684 2573 
Q 2584 2741 2328 2741 
Q 2006 2741 1831 2477 
Q 1656 2213 1656 1722 
L 1656 0 
L 531 0 
L 531 3500 
L 1656 3500 
L 1656 2988 
Q 1863 3284 2130 3434 
Q 2397 3584 2719 3584 
Q 3081 3584 3359 3409 
Q 3638 3234 3781 2919 
z
" transform="scale(0.015625)"/>
      </defs>
      <use xlink:href="#DejaVuSans-Bold-53"/>
      <use xlink:href="#DejaVuSans-Bold-75" x="72.021484"/>
      <use xlink:href="#DejaVuSans-Bold-6e" x="143.212891"/>
      <use xlink:href="#DejaVuSans-Bold-20" x="214.404297"/>
      <use xlink:href="#DejaVuSans-Bold-69" x="249.21875"/>
      <use xlink:href="#DejaVuSans-Bold-6e" x="283.496094"/>
      <use xlink:href="#DejaVuSans-Bold-20" x="354.6875"/>
      <use xlink:href="#DejaVuSans-Bold-47" x="389.501953"/>
      <use xlink:href="#DejaVuSans-Bold-65" x="471.582031"/>
      <use xlink:href="#DejaVuSans-Bold-6d" x="539.404297"/>
     </g>
    </g>
   </g>
   <g id="text_2">
    <g clip-path="url(#pb33e032092)">
     <!-- Mercury in Gem -->
     <g transform="translate(428.087136 528.884511) scale(0.1 -0.1)">
      <defs>
       <path id="DejaVuSans-Bold-4d" d="M 588 4666 
L 2119 4666 
L 3181 2169 
L 4250 4666 
L 5778 4666 
L 5778 0 
L 4641 0 
L 4641 3413 
L 3566 897 
L 2803 897 
L 1728 3413 
L 1728 0 
L 588 0 
L 588 4666 
z
" transform="scale(0.015625)"/>
       <path id="DejaVuSans-Bold-72" d="M 3138 2547 
Q 2991 2616 2845 2648 
Q 2700 2681 2553 2681 
Q 2122 2681 1889 2404 
Q 1656 2128 1656 1613 
L 1656 0 
L 538 0 
L 538 3500 
L 1656 3500 
L 1656 2925 
Q 1872 3269 2151 3426 
Q 2431 3584 2822 3584 
Q 2878 3584 2943 3579 
Q 3009 3575 3134 3559 
L 3138 2547 
z
" transform="scale(0.015625)"/>
       <path id="DejaVuSans-Bold-63" d="M 3366 3391 
L 3366 2478 
Q 3138 2634 2908 2709 
Q 2678 2784 2431 2784 
Q 1963 2784 1702 2511 
Q 1441 2238 1441 1747 
Q 1441 1256 1702 982 
Q 1963 709 2431 709 
Q 2694 709 2930 787 
Q 3166 866 3366 1019 
L 3366 103 
Q 3103 6 2833 -42 
Q 2563 -91 2291 -91 
Q 1344 -91 809 395 
Q 275 881 275 1747 
Q 275 2613 809 3098 
Q 1344 3584 2291 3584 
Q 2566 3584 2833 3536 
Q 3100 3488 3366 3391 
z
" transform="scale(0.015625)"/>
       <path id="DejaVuSans-Bold-79" d="M 78 3500 
L 1197 3500 
L 2138 1125 
L 2938 3500 
L 4056 3500 
L 2584 -331 
Q 2363 -916 2067 -1148 
Q 1772 -1381 1288 -1381 
L 641 -1381 
L 641 -647 
L 991 -647 
Q 1275 -647 1404 -556 
Q 1534 -466 1606 -231 
L 1638 -134 
L 78 3500 
z
" transform="scale(0.015625)"/>
      </defs>
      <use xlink:href="#DejaVuSans-Bold-4d"/>
      <use xlink:href="#DejaVuSans-Bold-65" x="99.511719"/>
      <use xlink:href="#DejaVuSans-Bold-72" x="167.333984"/>
      <use xlink:href="#DejaVuSans-Bold-63" x="216.650391"/>
      <use xlink:href="#DejaVuSans-Bold-75" x="275.927734"/>
      <use xlink:href="#DejaVuSans-Bold-72" x="347.119141"/>
      <use xlink:href="#DejaVuSans-Bold-79" x="396.435547"/>
      <use xlink:href="#DejaVuSans-Bold-20" x="461.621094"/>
      <use xlink:href="#DejaVuSans-Bold-69" x="496.435547"/>
      <use xlink:href="#DejaVuSans-Bold-6e" x="530.712891"/>
      <use xlink:href="#DejaVuSans-Bold-20" x="601.904297"/>
      <use xlink:href="#DejaVuSans-Bold-47" x="636.71875"/>
      <use xlink:href="#DejaVuSans-Bold-65" x="718.798828"/>
      <use xlink:href="#DejaVuSans-Bold-6d" x="786.621094"/>
     </g>
    </g>
   </g>
   <g id="text_3">
    <g clip-path="url(#pb33e032092)">
     <!-- Moon in Sco -->
     <g transform="translate(523.163267 382.377896) scale(0.1 -0.1)">
      <defs>
       <path id="DejaVuSans-Bold-6f" d="M 2203 2784 
Q 1831 2784 1636 2517 
Q 1441 2250 1441 1747 
Q 1441 1244 1636 976 
Q 1831 709 2203 709 
Q 2569 709 2762 976 
Q 2956 1244 2956 1747 
Q 2956 2250 2762 2517 
Q 2569 2784 2203 2784 
z
M 2203 3584 
Q 3106 3584 3614 3096 
Q 4122 2609 4122 1747 
Q 4122 884 3614 396 
Q 3106 -91 2203 -91 
Q 1297 -91 786 396 
Q 275 884 275 1747 
Q 275 2609 786 3096 
Q 1297 3584 2203 3584 
z
" transform="scale(0.015625)"/>
      </defs>
      <use xlink:href="#DejaVuSans-Bold-4d"/>
      <use xlink:href="#DejaVuSans-Bold-6f" x="99.511719"/>
      <use xlink:href="#DejaVuSans-Bold-6f" x="168.212891"/>
      <use xlink:href="#DejaVuSans-Bold-6e" x="236.914062"/>
      <use xlink:href="#DejaVuSans-Bold-20" x="308.105469"/>
      <use xlink:href="#DejaVuSans-Bold-69" x="342.919922"/>
      <use xlink:href="#DejaVuSans-Bold-6e" x="377.197266"/>
      <use xlink:href="#DejaVuSans-Bold-20" x="448.388672"/>
      <use xlink:href="#DejaVuSans-Bold-53" x="483.203125"/>
      <use xlink:href="#DejaVuSans-Bold-63" x="555.224609"/>
      <use xlink:href="#DejaVuSans-Bold-6f" x="614.501953"/>
     </g>
    </g>
   </g>
   <g id="text_4">
    <g clip-path="url(#pb33e032092)">
     <!-- Mars in Leo -->
     <g transform="translate(542.829694 438.84134) scale(0.1 -0.1)">
      <defs>
       <path id="DejaVuSans-Bold-61" d="M 2106 1575 
Q 1756 1575 1579 1456 
Q 1403 1338 1403 1106 
Q 1403 894 1545 773 
Q 1688 653 1941 653 
Q 2256 653 2472 879 
Q 2688 1106 2688 1447 
L 2688 1575 
L 2106 1575 
z
M 3816 1997 
L 3816 0 
L 2688 0 
L 2688 519 
Q 2463 200 2181 54 
Q 1900 -91 1497 -91 
Q 953 -91 614 226 
Q 275 544 275 1050 
Q 275 1666 698 1953 
Q 1122 2241 2028 2241 
L 2688 2241 
L 2688 2328 
Q 2688 2594 2478 2717 
Q 2269 2841 1825 2841 
Q 1466 2841 1156 2769 
Q 847 2697 581 2553 
L 581 3406 
Q 941 3494 1303 3539 
Q 1666 3584 2028 3584 
Q 2975 3584 3395 3211 
Q 3816 2838 3816 1997 
z
" transform="scale(0.015625)"/>
       <path id="DejaVuSans-Bold-73" d="M 3272 3391 
L 3272 2541 
Q 2913 2691 2578 2766 
Q 2244 2841 1947 2841 
Q 1628 2841 1473 2761 
Q 1319 2681 1319 2516 
Q 1319 2381 1436 2309 
Q 1553 2238 1856 2203 
L 2053 2175 
Q 2913 2066 3209 1816 
Q 3506 1566 3506 1031 
Q 3506 472 3093 190 
Q 2681 -91 1863 -91 
Q 1516 -91 1145 -36 
Q 775 19 384 128 
L 384 978 
Q 719 816 1070 734 
Q 1422 653 1784 653 
Q 2113 653 2278 743 
Q 2444 834 2444 1013 
Q 2444 1163 2330 1236 
Q 2216 1309 1875 1350 
L 1678 1375 
Q 931 1469 631 1722 
Q 331 1975 331 2491 
Q 331 3047 712 3315 
Q 1094 3584 1881 3584 
Q 2191 3584 2531 3537 
Q 2872 3491 3272 3391 
z
" transform="scale(0.015625)"/>
       <path id="DejaVuSans-Bold-4c" d="M 588 4666 
L 1791 4666 
L 1791 909 
L 3903 909 
L 3903 0 
L 588 0 
L 588 4666 
z
" transform="scale(0.015625)"/>
      </defs>
      <use xlink:href="#DejaVuSans-Bold-4d"/>
      <use xlink:href="#DejaVuSans-Bold-61" x="99.511719"/>
      <use xlink:href="#DejaVuSans-Bold-72" x="166.992188"/>
      <use xlink:href="#DejaVuSans-Bold-73" x="216.308594"/>
      <use xlink:href="#DejaVuSans-Bold-20" x="275.830078"/>
      <use xlink:href="#DejaVuSans-Bold-69" x="310.644531"/>
      <use xlink:href="#DejaVuSans-Bold-6e" x="344.921875"/>
      <use xlink:href="#DejaVuSans-Bold-20" x="416.113281"/>
      <use xlink:href="#DejaVuSans-Bold-4c" x="450.927734"/>
      <use xlink:href="#DejaVuSans-Bold-65" x="514.648438"/>
      <use xlink:href="#DejaVuSans-Bold-6f" x="582.470703"/>
     </g>
    </g>
   </g>
   <g id="text_5">
    <g clip-path="url(#pb33e032092)">
     <!-- Venus in Tau -->
     <g transform="translate(26.943401 77.092194) scale(0.1 -0.1)">
      <defs>
       <path id="DejaVuSans-Bold-56" d="M 31 4666 
L 1241 4666 
L 2478 1222 
L 3713 4666 
L 4922 4666 
L 3194 0 
L 1759 0 
L 31 4666 
z
" transform="scale(0.015625)"/>
       <path id="DejaVuSans-Bold-54" d="M 31 4666 
L 4331 4666 
L 4331 3756 
L 2784 3756 
L 2784 0 
L 1581 0 
L 1581 3756 
L 31 3756 
L 31 4666 
z
" transform="scale(0.015625)"/>
      </defs>
      <use xlink:href="#DejaVuSans-Bold-56"/>
      <use xlink:href="#DejaVuSans-Bold-65" x="71.892578"/>
      <use xlink:href="#DejaVuSans-Bold-6e" x="139.714844"/>
      <use xlink:href="#DejaVuSans-Bold-75" x="210.90625"/>
      <use xlink:href="#DejaVuSans-Bold-73" x="282.097656"/>
      <use xlink:href="#DejaVuSans-Bold-20" x="341.619141"/>
      <use xlink:href="#DejaVuSans-Bold-69" x="376.433594"/>
      <use xlink:href="#DejaVuSans-Bold-6e" x="410.710938"/>
      <use xlink:href="#DejaVuSans-Bold-20" x="481.902344"/>
      <use xlink:href="#DejaVuSans-Bold-54" x="516.716797"/>
      <use xlink:href="#DejaVuSans-Bold-61" x="572.054688"/>
      <use xlink:href="#DejaVuSans-Bold-75" x="639.535156"/>
     </g>
    </g>
   </g>
   <g id="text_6">
    <g clip-path="url(#pb33e032092)">
     <!-- Jupiter in Gem -->
     <g transform="translate(404.93535 483.292176) scale(0.1 -0.1)">
      <defs>
       <path id="DejaVuSans-Bold-4a" d="M 588 4666 
L 1791 4666 
L 1791 453 
Q 1791 -419 1317 -850 
Q 844 -1281 -116 -1281 
L -359 -1281 
L -359 -372 
L -172 -372 
Q 203 -372 395 -162 
Q 588 47 588 453 
L 588 4666 
z
" transform="scale(0.015625)"/>
       <path id="DejaVuSans-Bold-70" d="M 1656 506 
L 1656 -1331 
L 538 -1331 
L 538 3500 
L 1656 3500 
L 1656 2988 
Q 1888 3294 2169 3439 
Q 2450 3584 2816 3584 
Q 3463 3584 3878 3070 
Q 4294 2556 4294 1747 
Q 4294 938 3878 423 
Q 3463 -91 2816 -91 
Q 2450 -91 2169 54 
Q 1888 200 1656 506 
z
M 2400 2772 
Q 2041 2772 1848 2508 
Q 1656 2244 1656 1747 
Q 1656 1250 1848 986 
Q 2041 722 2400 722 
Q 2759 722 2948 984 
Q 3138 1247 3138 1747 
Q 3138 2247 2948 2509 
Q 2759 2772 2400 2772 
z
" transform="scale(0.015625)"/>
       <path id="DejaVuSans-Bold-74" d="M 1759 4494 
L 1759 3500 
L 2913 3500 
L 2913 2700 
L 1759 2700 
L 1759 1216 
Q 1759 972 1856 886 
Q 1953 800 2241 800 
L 2816 800 
L 2816 0 
L 1856 0 
Q 1194 0 917 276 
Q 641 553 641 1216 
L 641 2700 
L 84 2700 
L 84 3500 
L 641 3500 
L 641 4494 
L 1759 4494 
z
" transform="scale(0.015625)"/>
      </defs>
      <use xlink:href="#DejaVuSans-Bold-4a"/>
      <use xlink:href="#DejaVuSans-Bold-75" x="37.207031"/>
      <use xlink:href="#DejaVuSans-Bold-70" x="108.398438"/>
      <use xlink:href="#DejaVuSans-Bold-69" x="179.980469"/>
      <use xlink:href="#DejaVuSans-Bold-74" x="214.257812"/>
      <use xlink:href="#DejaVuSans-Bold-65" x="262.060547"/>
      <use xlink:href="#DejaVuSans-Bold-72" x="329.882812"/>
      <use xlink:href="#DejaVuSans-Bold-20" x="379.199219"/>
      <use xlink:href="#DejaVuSans-Bold-69" x="414.013672"/>
      <use xlink:href="#DejaVuSans-Bold-6e" x="448.291016"/>
      <use xlink:href="#DejaVuSans-Bold-20" x="519.482422"/>
      <use xlink:href="#DejaVuSans-Bold-47" x="554.296875"/>
      <use xlink:href="#DejaVuSans-Bold-65" x="636.376953"/>
      <use xlink:href="#DejaVuSans-Bold-6d" x="704.199219"/>
     </g>
    </g>
   </g>
   <g id="text_7">
    <g clip-path="url(#pb33e032092)">
     <!-- Saturn in Ari -->
     <g transform="translate(581.673753 366.420168) scale(0.1 -0.1)">
      <defs>
       <path id="DejaVuSans-Bold-41" d="M 3419 850 
L 1538 850 
L 1241 0 
L 31 0 
L 1759 4666 
L 3194 4666 
L 4922 0 
L 3713 0 
L 3419 850 
z
M 1838 1716 
L 3116 1716 
L 2478 3572 
L 1838 1716 
z
" transform="scale(0.015625)"/>
      </defs>
      <use xlink:href="#DejaVuSans-Bold-53"/>
      <use xlink:href="#DejaVuSans-Bold-61" x="72.021484"/>
      <use xlink:href="#DejaVuSans-Bold-74" x="139.501953"/>
      <use xlink:href="#DejaVuSans-Bold-75" x="187.304688"/>
      <use xlink:href="#DejaVuSans-Bold-72" x="258.496094"/>
      <use xlink:href="#DejaVuSans-Bold-6e" x="307.8125"/>
      <use xlink:href="#DejaVuSans-Bold-20" x="379.003906"/>
      <use xlink:href="#DejaVuSans-Bold-69" x="413.818359"/>
      <use xlink:href="#DejaVuSans-Bold-6e" x="448.095703"/>
      <use xlink:href="#DejaVuSans-Bold-20" x="519.287109"/>
      <use xlink:href="#DejaVuSans-Bold-41" x="554.101562"/>
      <use xlink:href="#DejaVuSans-Bold-72" x="631.494141"/>
      <use xlink:href="#DejaVuSans-Bold-69" x="680.810547"/>
     </g>
    </g>
   </g>
   <g id="text_8">
    <g clip-path="url(#pb33e032092)">
     <!-- Uranus in Tau -->
     <g transform="translate(81.324334 55.843918) scale(0.1 -0.1)">
      <defs>
       <path id="DejaVuSans-Bold-55" d="M 588 4666 
L 1791 4666 
L 1791 1869 
Q 1791 1291 1980 1042 
Q 2169 794 2597 794 
Q 3028 794 3217 1042 
Q 3406 1291 3406 1869 
L 3406 4666 
L 4609 4666 
L 4609 1869 
Q 4609 878 4112 393 
Q 3616 -91 2597 -91 
Q 1581 -91 1084 393 
Q 588 878 588 1869 
L 588 4666 
z
" transform="scale(0.015625)"/>
      </defs>
      <use xlink:href="#DejaVuSans-Bold-55"/>
      <use xlink:href="#DejaVuSans-Bold-72" x="81.201172"/>
      <use xlink:href="#DejaVuSans-Bold-61" x="130.517578"/>
      <use xlink:href="#DejaVuSans-Bold-6e" x="197.998047"/>
      <use xlink:href="#DejaVuSans-Bold-75" x="269.189453"/>
      <use xlink:href="#DejaVuSans-Bold-73" x="340.380859"/>
      <use xlink:href="#DejaVuSans-Bold-20" x="399.902344"/>
      <use xlink:href="#DejaVuSans-Bold-69" x="434.716797"/>
      <use xlink:href="#DejaVuSans-Bold-6e" x="468.994141"/>
      <use xlink:href="#DejaVuSans-Bold-20" x="540.185547"/>
      <use xlink:href="#DejaVuSans-Bold-54" x="575"/>
      <use xlink:href="#DejaVuSans-Bold-61" x="630.337891"/>
      <use xlink:href="#DejaVuSans-Bold-75" x="697.818359"/>
     </g>
    </g>
   </g>
   <g id="text_9">
    <g clip-path="url(#pb33e032092)">
     <!-- Neptune in Ari -->
     <g transform="translate(610.440364 425.452442) scale(0.1 -0.1)">
      <defs>
       <path id="DejaVuSans-Bold-4e" d="M 588 4666 
L 1931 4666 
L 3628 1466 
L 3628 4666 
L 4769 4666 
L 4769 0 
L 3425 0 
L 1728 3200 
L 1728 0 
L 588 0 
L 588 4666 
z
" transform="scale(0.015625)"/>
      </defs>
      <use xlink:href="#DejaVuSans-Bold-4e"/>
      <use xlink:href="#DejaVuSans-Bold-65" x="83.691406"/>
      <use xlink:href="#DejaVuSans-Bold-70" x="151.513672"/>
      <use xlink:href="#DejaVuSans-Bold-74" x="223.095703"/>
      <use xlink:href="#DejaVuSans-Bold-75" x="270.898438"/>
      <use xlink:href="#DejaVuSans-Bold-6e" x="342.089844"/>
      <use xlink:href="#DejaVuSans-Bold-65" x="413.28125"/>
      <use xlink:href="#DejaVuSans-Bold-20" x="481.103516"/>
      <use xlink:href="#DejaVuSans-Bold-69" x="515.917969"/>
      <use xlink:href="#DejaVuSans-Bold-6e" x="550.195312"/>
      <use xlink:href="#DejaVuSans-Bold-20" x="621.386719"/>
      <use xlink:href="#DejaVuSans-Bold-41" x="656.201172"/>
      <use xlink:href="#DejaVuSans-Bold-72" x="733.59375"/>
      <use xlink:href="#DejaVuSans-Bold-69" x="782.910156"/>
     </g>
    </g>
   </g>
   <g id="text_10">
    <g clip-path="url(#pb33e032092)">
     <!-- Pluto in Aqu -->
     <g transform="translate(622.99488 305.914167) scale(0.1 -0.1)">
      <defs>
       <path id="DejaVuSans-Bold-50" d="M 588 4666 
L 2584 4666 
Q 3475 4666 3951 4270 
Q 4428 3875 4428 3144 
Q 4428 2409 3951 2014 
Q 3475 1619 2584 1619 
L 1791 1619 
L 1791 0 
L 588 0 
L 588 4666 
z
M 1791 3794 
L 1791 2491 
L 2456 2491 
Q 2806 2491 2997 2661 
Q 3188 2831 3188 3144 
Q 3188 3456 2997 3625 
Q 2806 3794 2456 3794 
L 1791 3794 
z
" transform="scale(0.015625)"/>
       <path id="DejaVuSans-Bold-6c" d="M 538 4863 
L 1656 4863 
L 1656 0 
L 538 0 
L 538 4863 
z
" transform="scale(0.015625)"/>
       <path id="DejaVuSans-Bold-71" d="M 2181 2772 
Q 1825 2772 1636 2509 
Q 1447 2247 1447 1747 
Q 1447 1247 1636 984 
Q 1825 722 2181 722 
Q 2541 722 2730 984 
Q 2919 1247 2919 1747 
Q 2919 2247 2730 2509 
Q 2541 2772 2181 2772 
z
M 2919 506 
Q 2688 197 2409 53 
Q 2131 -91 1766 -91 
Q 1119 -91 703 423 
Q 288 938 288 1747 
Q 288 2556 703 3067 
Q 1119 3578 1766 3578 
Q 2131 3578 2409 3434 
Q 2688 3291 2919 2981 
L 2919 3500 
L 4044 3500 
L 4044 -1331 
L 2919 -1331 
L 2919 506 
z
" transform="scale(0.015625)"/>
      </defs>
      <use xlink:href="#DejaVuSans-Bold-50"/>
      <use xlink:href="#DejaVuSans-Bold-6c" x="73.291016"/>
      <use xlink:href="#DejaVuSans-Bold-75" x="107.568359"/>
      <use xlink:href="#DejaVuSans-Bold-74" x="178.759766"/>
      <use xlink:href="#DejaVuSans-Bold-6f" x="226.5625"/>
      <use xlink:href="#DejaVuSans-Bold-20" x="295.263672"/>
      <use xlink:href="#DejaVuSans-Bold-69" x="330.078125"/>
      <use xlink:href="#DejaVuSans-Bold-6e" x="364.355469"/>
      <use xlink:href="#DejaVuSans-Bold-20" x="435.546875"/>
      <use xlink:href="#DejaVuSans-Bold-41" x="470.361328"/>
      <use xlink:href="#DejaVuSans-Bold-71" x="547.753906"/>
      <use xlink:href="#DejaVuSans-Bold-75" x="619.335938"/>
     </g>
    </g>
   </g>
   <g id="text_11">
    <g clip-path="url(#pb33e032092)">
     <!-- Mean_Node in Pis -->
     <g transform="translate(355.751304 431.025947) scale(0.1 -0.1)">
      <defs>
       <path id="DejaVuSans-Bold-5f" d="M 3200 -916 
L 3200 -1509 
L 0 -1509 
L 0 -916 
L 3200 -916 
z
" transform="scale(0.015625)"/>
       <path id="DejaVuSans-Bold-64" d="M 2919 2988 
L 2919 4863 
L 4044 4863 
L 4044 0 
L 2919 0 
L 2919 506 
Q 2688 197 2409 53 
Q 2131 -91 1766 -91 
Q 1119 -91 703 423 
Q 288 938 288 1747 
Q 288 2556 703 3070 
Q 1119 3584 1766 3584 
Q 2128 3584 2408 3439 
Q 2688 3294 2919 2988 
z
M 2181 722 
Q 2541 722 2730 984 
Q 2919 1247 2919 1747 
Q 2919 2247 2730 2509 
Q 2541 2772 2181 2772 
Q 1825 2772 1636 2509 
Q 1447 2247 1447 1747 
Q 1447 1247 1636 984 
Q 1825 722 2181 722 
z
" transform="scale(0.015625)"/>
      </defs>
      <use xlink:href="#DejaVuSans-Bold-4d"/>
      <use xlink:href="#DejaVuSans-Bold-65" x="99.511719"/>
      <use xlink:href="#DejaVuSans-Bold-61" x="167.333984"/>
      <use xlink:href="#DejaVuSans-Bold-6e" x="234.814453"/>
      <use xlink:href="#DejaVuSans-Bold-5f" x="306.005859"/>
      <use xlink:href="#DejaVuSans-Bold-4e" x="356.005859"/>
      <use xlink:href="#DejaVuSans-Bold-6f" x="439.697266"/>
      <use xlink:href="#DejaVuSans-Bold-64" x="508.398438"/>
      <use xlink:href="#DejaVuSans-Bold-65" x="579.980469"/>
      <use xlink:href="#DejaVuSans-Bold-20" x="647.802734"/>
      <use xlink:href="#DejaVuSans-Bold-69" x="682.617188"/>
      <use xlink:href="#DejaVuSans-Bold-6e" x="716.894531"/>
      <use xlink:href="#DejaVuSans-Bold-20" x="788.085938"/>
      <use xlink:href="#DejaVuSans-Bold-50" x="822.900391"/>
      <use xlink:href="#DejaVuSans-Bold-69" x="896.191406"/>
      <use xlink:href="#DejaVuSans-Bold-73" x="930.46875"/>
     </g>
    </g>
   </g>
   <g id="text_12">
    <!-- Planetary Relationships -->
    <g transform="translate(289.633125 -6) scale(0.12 -0.12)">
     <defs>
      <path id="DejaVuSans-50" d="M 1259 4147 
L 1259 2394 
L 2053 2394 
Q 2494 2394 2734 2622 
Q 2975 2850 2975 3272 
Q 2975 3691 2734 3919 
Q 2494 4147 2053 4147 
L 1259 4147 
z
M 628 4666 
L 2053 4666 
Q 2838 4666 3239 4311 
Q 3641 3956 3641 3272 
Q 3641 2581 3239 2228 
Q 2838 1875 2053 1875 
L 1259 1875 
L 1259 0 
L 628 0 
L 628 4666 
z
" transform="scale(0.015625)"/>
      <path id="DejaVuSans-6c" d="M 603 4863 
L 1178 4863 
L 1178 0 
L 603 0 
L 603 4863 
z
" transform="scale(0.015625)"/>
      <path id="DejaVuSans-61" d="M 2194 1759 
Q 1497 1759 1228 1600 
Q 959 1441 959 1056 
Q 959 750 1161 570 
Q 1363 391 1709 391 
Q 2188 391 2477 730 
Q 2766 1069 2766 1631 
L 2766 1759 
L 2194 1759 
z
M 3341 1997 
L 3341 0 
L 2766 0 
L 2766 531 
Q 2569 213 2275 61 
Q 1981 -91 1556 -91 
Q 1019 -91 701 211 
Q 384 513 384 1019 
Q 384 1609 779 1909 
Q 1175 2209 1959 2209 
L 2766 2209 
L 2766 2266 
Q 2766 2663 2505 2880 
Q 2244 3097 1772 3097 
Q 1472 3097 1187 3025 
Q 903 2953 641 2809 
L 641 3341 
Q 956 3463 1253 3523 
Q 1550 3584 1831 3584 
Q 2591 3584 2966 3190 
Q 3341 2797 3341 1997 
z
" transform="scale(0.015625)"/>
      <path id="DejaVuSans-6e" d="M 3513 2113 
L 3513 0 
L 2938 0 
L 2938 2094 
Q 2938 2591 2744 2837 
Q 2550 3084 2163 3084 
Q 1697 3084 1428 2787 
Q 1159 2491 1159 1978 
L 1159 0 
L 581 0 
L 581 3500 
L 1159 3500 
L 1159 2956 
Q 1366 3272 1645 3428 
Q 1925 3584 2291 3584 
Q 2894 3584 3203 3211 
Q 3513 2838 3513 2113 
z
" transform="scale(0.015625)"/>
      <path id="DejaVuSans-65" d="M 3597 1894 
L 3597 1613 
L 953 1613 
Q 991 1019 1311 708 
Q 1631 397 2203 397 
Q 2534 397 2845 478 
Q 3156 559 3463 722 
L 3463 178 
Q 3153 47 2828 -22 
Q 2503 -91 2169 -91 
Q 1331 -91 842 396 
Q 353 884 353 1716 
Q 353 2575 817 3079 
Q 1281 3584 2069 3584 
Q 2775 3584 3186 3129 
Q 3597 2675 3597 1894 
z
M 3022 2063 
Q 3016 2534 2758 2815 
Q 2500 3097 2075 3097 
Q 1594 3097 1305 2825 
Q 1016 2553 972 2059 
L 3022 2063 
z
" transform="scale(0.015625)"/>
      <path id="DejaVuSans-74" d="M 1172 4494 
L 1172 3500 
L 2356 3500 
L 2356 3053 
L 1172 3053 
L 1172 1153 
Q 1172 725 1289 603 
Q 1406 481 1766 481 
L 2356 481 
L 2356 0 
L 1766 0 
Q 1100 0 847 248 
Q 594 497 594 1153 
L 594 3053 
L 172 3053 
L 172 3500 
L 594 3500 
L 594 4494 
L 1172 4494 
z
" transform="scale(0.015625)"/>
      <path id="DejaVuSans-72" d="M 2631 2963 
Q 2534 3019 2420 3045 
Q 2306 3072 2169 3072 
Q 1681 3072 1420 2755 
Q 1159 2438 1159 1844 
L 1159 0 
L 581 0 
L 581 3500 
L 1159 3500 
L 1159 2956 
Q 1341 3275 1631 3429 
Q 1922 3584 2338 3584 
Q 2397 3584 2469 3576 
Q 2541 3569 2628 3553 
L 2631 2963 
z
" transform="scale(0.015625)"/>
      <path id="DejaVuSans-79" d="M 2059 -325 
Q 1816 -950 1584 -1140 
Q 1353 -1331 966 -1331 
L 506 -1331 
L 506 -850 
L 844 -850 
Q 1081 -850 1212 -737 
Q 1344 -625 1503 -206 
L 1606 56 
L 191 3500 
L 800 3500 
L 1894 763 
L 2988 3500 
L 3597 3500 
L 2059 -325 
z
" transform="scale(0.015625)"/>
      <path id="DejaVuSans-20" transform="scale(0.015625)"/>
      <path id="DejaVuSans-52" d="M 2841 2188 
Q 3044 2119 3236 1894 
Q 3428 1669 3622 1275 
L 4263 0 
L 3584 0 
L 2988 1197 
Q 2756 1666 2539 1819 
Q 2322 1972 1947 1972 
L 1259 1972 
L 1259 0 
L 628 0 
L 628 4666 
L 2053 4666 
Q 2853 4666 3247 4331 
Q 3641 3997 3641 3322 
Q 3641 2881 3436 2590 
Q 3231 2300 2841 2188 
z
M 1259 4147 
L 1259 2491 
L 2053 2491 
Q 2509 2491 2742 2702 
Q 2975 2913 2975 3322 
Q 2975 3731 2742 3939 
Q 2509 4147 2053 4147 
L 1259 4147 
z
" transform="scale(0.015625)"/>
      <path id="DejaVuSans-69" d="M 603 3500 
L 1178 3500 
L 1178 0 
L 603 0 
L 603 3500 
z
M 603 4863 
L 1178 4863 
L 1178 4134 
L 603 4134 
L 603 4863 
z
" transform="scale(0.015625)"/>
      <path id="DejaVuSans-6f" d="M 1959 3097 
Q 1497 3097 1228 2736 
Q 959 2375 959 1747 
Q 959 1119 1226 758 
Q 1494 397 1959 397 
Q 2419 397 2687 759 
Q 2956 1122 2956 1747 
Q 2956 2369 2687 2733 
Q 2419 3097 1959 3097 
z
M 1959 3584 
Q 2709 3584 3137 3096 
Q 3566 2609 3566 1747 
Q 3566 888 3137 398 
Q 2709 -91 1959 -91 
Q 1206 -91 779 398 
Q 353 888 353 1747 
Q 353 2609 779 3096 
Q 1206 3584 1959 3584 
z
" transform="scale(0.015625)"/>
      <path id="DejaVuSans-73" d="M 2834 3397 
L 2834 2853 
Q 2591 2978 2328 3040 
Q 2066 3103 1784 3103 
Q 1356 3103 1142 2972 
Q 928 2841 928 2578 
Q 928 2378 1081 2264 
Q 1234 2150 1697 2047 
L 1894 2003 
Q 2506 1872 2764 1633 
Q 3022 1394 3022 966 
Q 3022 478 2636 193 
Q 2250 -91 1575 -91 
Q 1294 -91 989 -36 
Q 684 19 347 128 
L 347 722 
Q 666 556 975 473 
Q 1284 391 1588 391 
Q 1994 391 2212 530 
Q 2431 669 2431 922 
Q 2431 1156 2273 1281 
Q 2116 1406 1581 1522 
L 1381 1569 
Q 847 1681 609 1914 
Q 372 2147 372 2553 
Q 372 3047 722 3315 
Q 1072 3584 1716 3584 
Q 2034 3584 2315 3537 
Q 2597 3491 2834 3397 
z
" transform="scale(0.015625)"/>
      <path id="DejaVuSans-68" d="M 3513 2113 
L 3513 0 
L 2938 0 
L 2938 2094 
Q 2938 2591 2744 2837 
Q 2550 3084 2163 3084 
Q 1697 3084 1428 2787 
Q 1159 2491 1159 1978 
L 1159 0 
L 581 0 
L 581 4863 
L 1159 4863 
L 1159 2956 
Q 1366 3272 1645 3428 
Q 1925 3584 2291 3584 
Q 2894 3584 3203 3211 
Q 3513 2838 3513 2113 
z
" transform="scale(0.015625)"/>
      <path id="DejaVuSans-70" d="M 1159 525 
L 1159 -1331 
L 581 -1331 
L 581 3500 
L 1159 3500 
L 1159 2969 
Q 1341 3281 1617 3432 
Q 1894 3584 2278 3584 
Q 2916 3584 3314 3078 
Q 3713 2572 3713 1747 
Q 3713 922 3314 415 
Q 2916 -91 2278 -91 
Q 1894 -91 1617 61 
Q 1341 213 1159 525 
z
M 3116 1747 
Q 3116 2381 2855 2742 
Q 2594 3103 2138 3103 
Q 1681 3103 1420 2742 
Q 1159 2381 1159 1747 
Q 1159 1113 1420 752 
Q 1681 391 2138 391 
Q 2594 391 2855 752 
Q 3116 1113 3116 1747 
z
" transform="scale(0.015625)"/>
     </defs>
     <use xlink:href="#DejaVuSans-50"/>
     <use xlink:href="#DejaVuSans-6c" x="60.302734"/>
     <use xlink:href="#DejaVuSans-61" x="88.085938"/>
     <use xlink:href="#DejaVuSans-6e" x="149.365234"/>
     <use xlink:href="#DejaVuSans-65" x="212.744141"/>
     <use xlink:href="#DejaVuSans-74" x="274.267578"/>
     <use xlink:href="#DejaVuSans-61" x="313.476562"/>
     <use xlink:href="#DejaVuSans-72" x="374.755859"/>
     <use xlink:href="#DejaVuSans-79" x="415.869141"/>
     <use xlink:href="#DejaVuSans-20" x="475.048828"/>
     <use xlink:href="#DejaVuSans-52" x="506.835938"/>
     <use xlink:href="#DejaVuSans-65" x="571.818359"/>
     <use xlink:href="#DejaVuSans-6c" x="633.341797"/>
     <use xlink:href="#DejaVuSans-61" x="661.125"/>
     <use xlink:href="#DejaVuSans-74" x="722.404297"/>
     <use xlink:href="#DejaVuSans-69" x="761.613281"/>
     <use xlink:href="#DejaVuSans-6f" x="789.396484"/>
     <use xlink:href="#DejaVuSans-6e" x="850.578125"/>
     <use xlink:href="#DejaVuSans-73" x="913.957031"/>
     <use xlink:href="#DejaVuSans-68" x="966.056641"/>
     <use xlink:href="#DejaVuSans-69" x="1029.435547"/>
     <use xlink:href="#DejaVuSans-70" x="1057.21875"/>
     <use xlink:href="#DejaVuSans-73" x="1120.695312"/>
    </g>
   </g>
  </g>
 </g>
 <defs>
  <clipPath id="pb33e032092">
   <rect x="0" y="0" width="720" height="576"/>
  </clipPath>
 </defs>
</svg>
